# xmcd
#
# Track frame offsets: 
#        150
#        11775
#        29805
#        45782
#        59432
#        74125
#        88517
#        103542
#        116392
#        127035
#        141645
#        157690
#        167810
#        182045
#        195280
#
# Disc length: 2794 seconds
#
# Revision: 0
# Processed by: cddbd v1.5.1PL2 Copyright (c) Steve Scherf et al.
# Submitted via: ExactAudioCopy v0.95b3
#
DISCID=cf0ae80f
DTITLE=LaVerne Tripp - Songs for Overcomers
DYEAR=2003
DGENRE=Gospel
TTITLE0=Victory Is Now
TTITLE1=We've Got the Power
TTITLE2=Above It All
TTITLE3=Worship the KING
TTITLE4=Have You Heard the News?
TTITLE5=I Know
TTITLE6=Pour Out YOUR SPIRIT
TTITLE7=HE's Coming Soon
TTITLE8=We're Possessing the Land
TTITLE9=We'll Not Be Defeated
TTITLE10=The Light
TTITLE11=That Day Is Almost Here
TTITLE12=Come On Home
TTITLE13=The Church That Can't Be Defeated
TTITLE14=Just When I Needed Love
EXTD=
EXTT0=
EXTT1=
EXTT2=
EXTT3=
EXTT4=
EXTT5=
EXTT6=
EXTT7=
EXTT8=
EXTT9=
EXTT10=
EXTT11=
EXTT12=
EXTT13=
EXTT14=
PLAYORDER=
